<?xml version="1.0" encoding="UTF-8"?>
<svg xmlns="http://www.w3.org/2000/svg" xmlns:xlink="http://www.w3.org/1999/xlink" viewBox="0 0 50 50" width="50px" height="50px">
<g id="surface46976627">
<path style=" stroke:none;fill-rule:nonzero;fill:rgb(100%,100%,100%);fill-opacity:1;" d="M 12 23.402344 L 12 10.390625 L 11.878906 10.300781 L 11.871094 10.300781 L 9.140625 8.28125 C 7.46875 7.039062 5.089844 7.101562 3.609375 8.558594 C 2.621094 9.539062 2 10.898438 2 12.410156 L 2 16.011719 Z M 38 23.390625 L 38 23.402344 L 48 16.011719 L 48 12.410156 C 48 10.921875 47.398438 9.558594 46.421875 8.578125 C 44.960938 7.121094 42.65625 6.953125 40.996094 8.175781 L 38.121094 10.300781 L 38 10.390625 Z M 14 24.867188 L 24.40625 32.558594 C 24.757812 32.820312 25.242188 32.820312 25.59375 32.558594 L 36 24.867188 L 36 11.867188 L 25 20 L 14 11.867188 Z M 38 25.890625 L 38 41 C 38 41.550781 38.449219 42 39 42 L 45.5 42 C 46.882812 42 48 40.882812 48 39.5 L 48 18.496094 Z M 12 25.890625 L 2 18.496094 L 2 39.5 C 2 40.882812 3.117188 42 4.5 42 L 11 42 C 11.550781 42 12 41.550781 12 41 Z M 12 25.890625 "/>
</g>
</svg>
